REM MD5 0db8f0a7139a333a78339d1d5899ef4a
FILE "RTL Skispringen 2002 (Germany) (En,De).bin" BINARY
  TRACK 01 MODE2/2352
    INDEX 01 00:00:00
  TRACK 02 AUDIO
    INDEX 00 02:10:41
    INDEX 01 02:12:41
  TRACK 03 AUDIO
    INDEX 00 07:12:52
    INDEX 01 07:14:52
  TRACK 04 AUDIO
    INDEX 00 10:34:70
    INDEX 01 10:36:70
REM LEADOUT 13:55:41
